<svg height="480pt" viewBox="0 0 480 480" width="480pt" xmlns="http://www.w3.org/2000/svg"><path d="m456 320h-104c0-13.601562-10.398438-24-24-24h-8c-13.601562 0-24 10.398438-24 24h-8c-13.601562 0-24 10.398438-24 24v96c0 13.601562 10.398438 24 24 24h9.601562c3.199219 9.601562 12 16 22.398438 16h8c10.398438 0 19.199219-6.398438 22.398438-16h105.601562c13.601562 0 24-10.398438 24-24v-96c0-13.601562-10.398438-24-24-24zm-176 120v-96c0-4.800781 3.199219-8 8-8h8v112h-8c-4.800781 0-8-3.199219-8-8zm56 16c0 4.800781-3.199219 8-8 8h-8c-4.800781 0-8-3.199219-8-8v-136c0-4.800781 3.199219-8 8-8h8c4.800781 0 8 3.199219 8 8zm128-16c0 4.800781-3.199219 8-8 8h-104v-112h104c4.800781 0 8 3.199219 8 8zm0 0"/><path d="m32 336h16v16h-16zm0 0"/><path d="m64 336h16v16h-16zm0 0"/><path d="m216 480v-96c13.601562 0 24-10.398438 24-24v-88h-24v-32h-16v32h-160v-64h129.601562c3.199219 9.601562 12 16 22.398438 16h86.398438l-5.597657 40h-24.800781v16h144v-16h-24.800781l-5.597657-40h86.398438c13.601562 0 24-10.398438 24-24v-176c0-13.601562-10.398438-24-24-24h-256c-13.601562 0-24 10.398438-24 24v168h-144v80h-24v88c0 13.601562 10.398438 24 24 24v96zm134.398438-216h-61.597657l5.597657-40h50.402343zm97.601562-56h-256c-4.800781 0-8-3.199219-8-8v-8h272v8c0 4.800781-3.199219 8-8 8zm-256-192h256c4.800781 0 8 3.199219 8 8v152h-272v-128h256v-16h-256v-8c0-4.800781 3.199219-8 8-8zm-176 344v-72h208v72c0 4.800781-3.199219 8-8 8h-192c-4.800781 0-8-3.199219-8-8zm184 24v80h-160v-80zm0 0"/><path d="m56 432h128v16h-128zm0 0"/><path d="m368 352h16v16h-16zm0 0"/><path d="m400 352h16v16h-16zm0 0"/><path d="m432 352h16v16h-16zm0 0"/><path d="m368 384h16v16h-16zm0 0"/><path d="m400 384h16v16h-16zm0 0"/><path d="m432 384h16v16h-16zm0 0"/><path d="m368 416h16v16h-16zm0 0"/><path d="m400 416h16v16h-16zm0 0"/><path d="m432 416h16v16h-16zm0 0"/><path d="m56 400h128v16h-128zm0 0"/><path d="m48 176h72c13.601562 0 24-10.398438 24-24v-128c0-13.601562-10.398438-24-24-24h-72c-13.601562 0-24 10.398438-24 24v128c0 13.601562 10.398438 24 24 24zm72-16h-72c-4.800781 0-8-3.199219-8-8v-8h88v8c0 4.800781-3.199219 8-8 8zm-80-32v-80h88v80zm8-112h72c4.800781 0 8 3.199219 8 8v8h-88v-8c0-4.800781 3.199219-8 8-8zm0 0"/></svg>