<svg height="512" viewBox="0 0 512 512" width="512" xmlns="http://www.w3.org/2000/svg"><g id="Outline"><path d="m88 64h24v32a24 24 0 0 0 48 0v-16h-16v16a8 8 0 0 1 -16 0v-48a16 16 0 0 1 32 0h-16v16h192v48a8 8 0 0 0 8 8h48v96h16v-104a8 8 0 0 0 -2.343-5.657l-56-56a8 8 0 0 0 -5.657-2.343h-168a32 32 0 0 0 -64 0h-32a8 8 0 0 0 -8 8v192h16zm264 11.313 28.687 28.687h-28.687z"/><path d="m392 456h-56v16h64a8 8 0 0 0 8-8v-104h-16z"/><path d="m168 384a8 8 0 0 0 -8 8v40a8 8 0 0 0 8 8h48a8 8 0 0 0 8-8v-40a8 8 0 0 0 -8-8zm40 40h-32v-24h32z"/><path d="m104 336h16v16h-16z"/><path d="m304 432c0-19.878-10.992-40-32-40s-32 20.122-32 40c0 4.485-1.727 6.414-5.634 10.35-4.375 4.406-10.366 10.44-10.366 21.881a29.884 29.884 0 0 0 4.423 15.769h-84.423v-104a8 8 0 0 0 -8-8h-48a8 8 0 0 0 -8 8v104h-24v-141.268l96-42 96 42v45.268h16v-38.268l12.793 5.6a8 8 0 0 0 11.207-7.332v-40a8 8 0 0 0 -4.793-7.329l-128-56a8 8 0 0 0 -6.414 0l-128 56a8 8 0 0 0 -4.793 7.329v40a8 8 0 0 0 11.207 7.329l12.793-5.597v134.268h-24v16h272c6.385 0 14.022-2.873 19.93-7.5a30.364 30.364 0 0 0 12.07-24.269c0-11.441-5.991-17.475-10.365-21.881-3.909-3.936-5.635-5.865-5.635-10.35zm-272-100.232v-22.536l120-52.5 120 52.5v22.536l-8-3.5v-.268h-.612l-108.181-47.329a8 8 0 0 0 -6.414 0l-108.181 47.329h-.612v.268zm64 52.232h32v96h-32zm192 96h-32c-4.406 0-16-4.849-16-15.769 0-4.652 1.753-6.614 5.72-10.609 4.338-4.37 10.28-10.354 10.28-21.622 0-18.984 10.466-24 16-24 12.656 0 16 15.7 16 24 0 11.268 5.941 17.252 10.279 21.622 3.966 4 5.72 5.957 5.72 10.609.001 10.92-11.599 15.769-15.999 15.769z"/><path d="m468.452 230.483 18.909-27.961a24 24 0 1 0 -39.761-26.889l-129.968 192.178a8 8 0 0 0 -1.3 3.436l-4.673 35.471a8 8 0 0 0 11.854 8.016l31.18-17.544a7.986 7.986 0 0 0 2.7-2.49l101.82-150.556 11.013 12.277-32.354 47.841 13.253 8.963 35.854-53.015a8 8 0 0 0 -.672-9.823zm-7.6-45.887a8 8 0 1 1 13.253 8.964l-16.668 24.646-11.013-12.277zm-115.652 199.577-15.591 8.771 2.337-17.735 21.35-31.569 13.254 8.963zm30.313-44.823-13.254-8.964 74.93-110.8 11.011 12.281z"/><path d="m136 144h16v16h-16z"/><path d="m168 144h192v16h-192z"/><path d="m120 176h240v16h-240z"/><path d="m120 208h240v16h-240z"/><path d="m240 240h120v16h-120z"/><path d="m304 272h24v16h-24z"/></g></svg>